<?xml version="1.0" standalone="no"?>
<!DOCTYPE svg PUBLIC "-//W3C//DTD SVG 20010904//EN"
 "http://www.w3.org/TR/2001/REC-SVG-20010904/DTD/svg10.dtd">
<svg version="1.0" xmlns="http://www.w3.org/2000/svg"
 width="512.000000pt" height="512.000000pt" viewBox="0 0 512.000000 512.000000"
 preserveAspectRatio="xMidYMid meet">
<metadata>
Created by potrace 1.14, written by Peter Selinger 2001-2017
</metadata>
<g transform="translate(0.000000,512.000000) scale(0.100000,-0.100000)"
fill="#000000" stroke="none">
<path d="M2484 4996 l-34 -34 0 -251 0 -251 -22 -4 c-13 -2 -66 -9 -118 -16
-317 -38 -659 -184 -918 -393 l-83 -67 -53 46 c-29 26 -113 107 -187 180 -124
123 -137 134 -171 134 -74 0 -118 -43 -118 -117 0 -36 9 -47 180 -218 99 -99
180 -183 180 -187 0 -4 -32 -48 -70 -99 -130 -170 -225 -347 -293 -549 -38
-109 -82 -316 -92 -432 l-7 -68 -261 0 c-190 -1 -266 -4 -277 -13 -56 -44 -67
-125 -24 -176 l26 -31 268 0 269 0 5 -57 c11 -107 55 -317 87 -413 69 -211
183 -423 317 -591 l64 -79 -186 -192 c-180 -185 -186 -192 -186 -232 0 -68 51
-116 121 -116 29 0 55 22 223 189 l191 189 45 -39 c73 -65 257 -184 375 -243
184 -91 380 -151 575 -175 52 -7 105 -14 118 -17 l22 -4 0 -261 0 -261 29 -28
c50 -50 127 -52 172 -4 24 26 24 26 27 290 3 303 -11 268 117 279 322 29 689
183 965 404 l64 51 186 -185 c201 -200 205 -202 275 -169 37 17 65 65 65 111
0 23 -31 59 -180 208 -99 99 -180 185 -180 192 0 6 21 35 46 65 218 252 391
667 422 1008 l7 75 265 5 c146 3 266 7 268 8 1 1 11 17 22 34 30 49 26 101 -9
140 l-29 33 -259 5 -258 5 -6 75 c-29 350 -194 748 -422 1020 l-46 55 179 181
c159 159 180 184 180 213 0 70 -48 121 -115 121 -39 0 -46 -6 -215 -175 -96
-96 -179 -175 -185 -175 -5 0 -41 26 -80 57 -200 162 -450 286 -708 352 -99
26 -164 37 -324 57 l-43 5 0 251 0 250 -34 34 c-29 29 -41 34 -81 34 -40 0
-52 -5 -81 -34z m-34 -1405 l0 -470 -53 -15 c-29 -8 -75 -27 -102 -41 l-49
-26 -328 328 c-180 180 -328 331 -328 336 0 17 183 141 290 196 166 85 402
156 533 160 l37 1 0 -469z m413 448 c236 -47 502 -171 652 -303 l40 -35 -335
-336 -336 -335 -58 31 c-32 18 -77 37 -100 44 l-41 12 -3 472 -2 471 41 0 c22
0 87 -9 142 -21z m-803 -1220 c-16 -31 -34 -77 -41 -103 l-11 -46 -472 0 -472
0 8 73 c29 245 134 508 284 711 l66 89 333 -333 334 -333 -29 -58z m1682 694
c49 -52 141 -198 189 -298 77 -159 118 -304 144 -497 l6 -48 -484 0 -484 0
-12 43 c-6 23 -24 68 -38 100 l-27 58 334 334 c184 184 337 335 341 335 3 0
17 -12 31 -27z m-1708 -1129 c13 -34 32 -77 43 -95 l21 -32 -331 -339 c-183
-186 -336 -338 -342 -338 -15 0 -114 138 -173 242 -58 104 -100 205 -137 336
-26 88 -56 278 -47 287 3 3 217 4 475 3 l469 -3 22 -61z m2046 57 c0 -41 -26
-186 -50 -276 -51 -192 -127 -348 -251 -515 l-61 -83 -186 185 c-103 101 -258
253 -344 338 -145 141 -174 179 -149 194 8 5 32 61 60 139 l11 27 485 0 c291
0 485 -4 485 -9z m-1700 -397 l65 -23 3 -486 2 -486 -52 7 c-272 33 -523 135
-751 307 l-68 51 343 343 342 342 26 -16 c13 -9 54 -27 90 -39z m830 -289
c301 -301 343 -346 330 -359 -31 -30 -174 -127 -243 -165 -144 -80 -327 -141
-495 -166 -53 -8 -103 -15 -109 -15 -10 0 -13 104 -13 488 l0 488 58 18 c32 9
71 26 87 36 17 11 32 20 35 20 3 0 160 -155 350 -345z"/>
</g>
</svg>
